<?xml version="1.0" standalone="no"?>
<!DOCTYPE svg PUBLIC "-//W3C//DTD SVG 20010904//EN"
  "http://www.w3.org/TR/2001/REC-SVG-20010904/DTD/svg10.dtd">
<svg version="1.0" xmlns="http://www.w3.org/2000/svg"
  width="260.000000pt" height="260.000000pt" viewBox="0 0 260.000000 260.000000"
  preserveAspectRatio="xMidYMid meet">
<metadata>
Created by potrace 1.11, written by Peter Selinger 2001-2013
</metadata>
<g transform="translate(0.000000,260.000000) scale(0.100000,-0.100000)"
fill="#000000" stroke="none">
<path d="M1776 1892 c-69 -40 -116 -101 -137 -177 -14 -51 -41 -48 -33 5 6 38
5 40 -19 40 -20 0 -28 -7 -37 -36 -8 -24 -15 -33 -22 -26 -15 15 -56 -6 -60
-31 -2 -11 -9 -22 -17 -25 -9 -3 -11 2 -8 14 3 11 3 37 -1 59 -6 34 -11 40
-32 40 -19 0 -27 -7 -36 -33 l-10 -33 -14 43 c-17 55 -23 61 -49 53 -16 -5
-21 -15 -21 -40 0 -28 -3 -32 -20 -28 -11 3 -20 11 -20 18 0 6 -9 20 -20 30
-16 15 -22 15 -35 5 -8 -7 -15 -22 -15 -33 0 -20 0 -20 -21 2 -24 26 -40 24
-54 -7 -14 -31 -22 -28 -44 16 -35 69 -71 98 -140 117 -66 17 -144 -1 -180
-42 -22 -25 -23 -33 -18 -106 l7 -80 -166 5 -166 5 -32 -27 -31 -28 -35 24
c-37 26 -74 31 -86 13 -8 -13 23 -39 78 -66 30 -15 37 -25 42 -56 4 -21 2 -46
-4 -56 -19 -37 -23 -182 -6 -283 19 -116 20 -170 4 -186 -9 -9 -8 -18 2 -38
14 -24 13 -28 -13 -50 -55 -47 -22 -74 36 -30 30 23 38 24 115 19 45 -3 82
-10 82 -14 0 -4 -5 -20 -12 -34 -8 -17 -8 -29 -1 -36 17 -17 43 2 65 47 l20
44 184 -2 c131 -1 181 -4 175 -12 -5 -6 -12 -26 -16 -43 -6 -28 -4 -33 13 -33
24 0 44 22 57 64 9 28 15 32 60 38 78 10 516 9 597 -1 288 -38 540 -47 596
-21 17 8 33 17 33 20 1 3 3 14 4 25 2 11 16 59 33 106 16 47 33 117 37 155 10
93 18 110 64 133 42 22 71 47 71 62 0 16 -51 9 -80 -11 -37 -26 -43 -16 -42
73 1 81 -13 147 -31 147 -7 0 9 18 36 41 53 45 58 59 23 59 -15 0 -37 -15 -60
-40 -35 -39 -56 -50 -56 -30 0 5 -16 17 -36 25 -30 12 -34 18 -24 30 13 16 6
35 -13 35 -7 0 -24 -11 -39 -25 -29 -27 -100 -35 -114 -14 -4 7 -21 9 -46 5
l-40 -7 7 33 c23 111 12 173 -34 198 -33 17 -162 12 -195 -8z m-464 -223 c5
-3 3 -9 -6 -12 -12 -5 -16 0 -15 21 0 16 3 21 6 12 3 -8 10 -18 15 -21z m-185
-1 c-3 -8 -6 -5 -6 6 -1 11 2 17 5 13 3 -3 4 -12 1 -19z m-226 -116 c6 -48 -6
-65 -43 -60 -19 2 -23 10 -26 47 -4 47 8 63 43 59 15 -2 21 -13 26 -46z m700
-47 c4 -16 7 -64 8 -105 1 -80 8 -120 21 -120 4 0 32 48 61 106 57 113 90 154
121 154 11 0 18 -3 16 -7 -1 -5 -23 -48 -47 -97 -37 -76 -42 -94 -34 -115 6
-15 32 -77 58 -138 40 -95 45 -115 35 -128 -7 -9 -23 -15 -34 -13 -16 2 -30
24 -59 97 -51 129 -53 130 -91 78 -24 -32 -32 -56 -36 -102 -5 -58 -6 -60 -36
-63 l-31 -3 -1 103 c-1 57 -6 159 -11 228 -9 136 -4 163 32 158 15 -2 24 -12
28 -33z m-409 -2 c25 -23 23 -41 -8 -55 -24 -11 -28 -10 -46 15 -13 18 -29 27
-48 27 -56 0 -60 -6 -60 -85 0 -89 9 -99 90 -99 82 -1 93 -14 101 -124 4 -48
3 -94 -2 -103 -14 -27 -84 -49 -153 -49 -71 0 -76 5 -76 70 0 41 18 64 47 58
14 -3 18 -13 18 -48 l0 -45 44 -3 c27 -2 47 1 51 9 5 6 6 48 3 93 -7 105 -16
116 -99 116 -80 0 -94 16 -94 110 0 72 8 89 55 114 42 21 153 21 177 -1z m129
5 c1 -7 4 -60 8 -118 l6 -105 45 0 45 0 -3 97 c-4 88 -2 97 16 107 42 22 48 8
60 -142 7 -78 12 -177 12 -219 0 -75 -1 -78 -26 -84 -14 -4 -29 -3 -34 2 -5 5
-10 52 -12 104 l-3 95 -50 0 -50 0 0 -95 0 -95 -32 -3 c-38 -4 -34 -33 -39
253 -2 123 1 194 8 202 13 17 48 17 49 1z m796 -4 c28 -8 31 -17 39 -111 5
-63 11 -81 28 -95 l21 -17 -23 -16 c-20 -15 -22 -21 -16 -86 8 -82 -6 -119
-43 -119 -22 0 -23 4 -23 64 0 35 -3 77 -6 94 -6 28 -9 30 -63 34 -31 3 -62 3
-68 1 -9 -4 -13 -33 -13 -99 0 -92 0 -94 -26 -100 -14 -4 -29 -3 -34 2 -14 14
-16 345 -2 371 30 55 155 97 229 77z m-1568 -76 c12 -29 26 -62 31 -73 4 -11
14 -35 22 -52 7 -18 18 -33 24 -33 12 0 64 152 64 186 0 11 5 25 12 32 16 16
55 15 61 -2 3 -8 9 -107 13 -220 7 -221 5 -236 -42 -236 -24 0 -24 1 -24 116
0 124 -10 140 -31 48 -8 -37 -20 -61 -34 -70 -28 -19 -55 -8 -55 21 0 13 -12
47 -27 76 l-28 53 -5 -109 -5 -110 -30 0 -30 0 -8 205 c-7 201 -7 205 14 222
30 25 52 10 78 -54z m364 -116 c4 -70 10 -155 13 -188 l7 -61 -32 -11 c-39
-14 -38 -15 -45 98 -21 300 -21 279 5 289 13 4 29 6 35 4 7 -2 13 -54 17 -131z"/>
<path d="M1989 1473 c-31 -8 -51 -74 -43 -137 l6 -41 67 0 66 0 3 66 c4 91 -8
119 -50 118 -18 -1 -40 -3 -49 -6z"/>
<path d="M372 1754 c4 -37 32 -54 54 -32 22 22 3 58 -32 58 -22 0 -25 -4 -22
-26z"/>
<path d="M2120 1735 c-14 -17 -5 -35 19 -35 22 0 45 25 36 40 -9 15 -41 12
-55 -5z"/>
<path d="M550 1695 c-7 -8 -10 -19 -6 -22 9 -9 38 8 38 22 -1 16 -18 16 -32 0z"/>
<path d="M115 1193 c-59 -12 -85 -25 -85 -45 0 -19 4 -20 48 -13 51 8 82 21
82 34 0 15 -24 28 -45 24z"/>
<path d="M2430 1155 c-20 -25 -1 -35 66 -35 62 0 64 1 64 25 0 24 -3 25 -59
25 -39 0 -63 -5 -71 -15z"/>
<path d="M1047 843 c-14 -13 -6 -33 12 -33 21 0 45 23 34 33 -8 9 -38 9 -46 0z"/>
<path d="M2051 831 c-23 -15 0 -65 32 -69 35 -4 45 20 23 53 -17 26 -32 30
-55 16z"/>
<path d="M1985 784 c-13 -14 -13 -19 8 -55 17 -30 28 -39 50 -39 33 0 35 19 7
65 -25 40 -45 49 -65 29z"/>
</g>
</svg>
